<svg version="1.2" xmlns="http://www.w3.org/2000/svg" viewBox="0 0 146 146" width="146" height="146">
	<title>logo2-svg</title>
	<defs>
		<clipPath clipPathUnits="userSpaceOnUse" id="cp1">
			<path d="m17.83 27h28.17v29h-28.17z"/>
		</clipPath>
		<clipPath clipPathUnits="userSpaceOnUse" id="cp2">
			<path d="m70 0.81h9v14.19h-9z"/>
		</clipPath>
		<clipPath clipPathUnits="userSpaceOnUse" id="cp3">
			<path d="m34 38h101.58v67h-101.58z"/>
		</clipPath>
	</defs>
	<style>
		.s0 { fill: #334139 } 
		.s1 { fill: #ffffff } 
		.s2 { fill: #cb553d } 
	</style>
	<g id="Clip-Path" clip-path="url(#cp1)">
		<g id="Layer">
			<path id="Layer" class="s0" d="m21.8 27.5c-0.1-0.1-0.3 0.1-0.2 0.2q3.1 4.6 6.4 9 0.9 1.2 1.9 2.3-4.6-4.1-8.8-8.7-1.1-1.3-2.3-2.7-0.1-0.1-0.2 0-0.1 0.1 0 0.2c2.2 3.6 5.1 6.7 8.2 9.7q1.2 1.1 2.4 2.2-0.1 0.1-0.1 0.2-0.1 0.1-0.1 0.1c0 0-0.1 0.2-0.2 0.2l-8.3-6.4-2.3-1.8c-0.2-0.1-0.3 0.1-0.2 0.2 2.4 2.6 5.2 4.9 8 7q1.2 0.9 2.4 1.8c-0.5 0.9-0.5 1.9-0.2 2.9 0.4 1.5 1.4 2.7 2.6 3.6 0.7 0.5 1.5 1 2.2 1.5 0.8 0.5 1.5 1.1 2.3 1.6 1.6 0.9 4.5 3 6.1 3.9q0.6 0.3 1.2 0.6c0.3 0.1 0.7 0.3 1 0.4 0.3 0.1 0.7 0.1 0.9-0.1 0.3-0.2 0.4-0.5 0.5-0.8 0.1-0.7-0.1-1.5-0.3-2.2-0.2-0.7-0.6-1.5-0.9-2.2-1.3-2.9-4.3-7-6.3-9.5q-0.7-0.9-1.6-1.7c-0.5-0.6-1.2-1.2-2-1.4-0.9-0.3-1.8-0.1-2.6 0.4q-1.5-3.3-3.4-6.4-0.5-0.9-1.1-1.7c-0.1-0.2-0.3 0-0.2 0.1q1.2 3.3 2.8 6.6 0 0 0 0c-1.7-2.4-3.4-4.8-5.4-6.9q-1.1-1.1-2.2-2.2z"/>
		</g>
	</g>
	<path id="Layer" class="s1" d="m30.8 44.6q-0.1 0-0.1 0.2 0 0 0.1 0.1l0.2 0.1q0 0.1 0.1 0.1 0.1-0.1 0.1-0.2 0-0.1 0-0.1l-0.3-0.2q0 0-0.1 0z"/>
	<path id="Layer" class="s1" d="m30.3 41.1q-0.1 0.1 0 0.2l0.4 0.3q0.1 0.1 0.2 0 0.1-0.2-0.1-0.2l-0.3-0.3q-0.1-0.1-0.2 0z"/>
	<path id="Layer" class="s1" d="m33.5 39.8q-0.2 0-0.2 0.2 0 0 0.1 0.1l0.2 0.2q0.1 0.1 0.2 0 0.1 0 0.1-0.1 0-0.1-0.1-0.1l-0.2-0.3q-0.1 0-0.1 0z"/>
	<path id="Layer" class="s1" d="m33.4 42.5q-0.1 0.1 0 0.2l0.5 0.4c0 0.1 0.1 0 0.2 0q0.1-0.1 0-0.2l-0.5-0.4c0-0.1-0.1-0.1-0.2 0z"/>
	<path id="Layer" class="s1" d="m33.3 46.2q-0.1 0.1 0 0.2l0.4 0.3q0.1 0.1 0.2 0 0.1-0.1 0-0.2l-0.4-0.3q-0.1-0.1-0.2 0z"/>
	<path id="Layer" class="s1" d="m36.3 42q-0.1-0.1-0.1-0.1-0.1 0-0.2 0.1 0 0.1 0 0.1 0.1 0.2 0.1 0.3 0.1 0.1 0.3 0.2 0 0 0.1 0 0.1-0.1 0.1-0.2-0.1-0.1-0.1-0.1 0 0-0.1-0.1 0 0-0.1-0.1 0 0 0-0.1z"/>
	<path id="Layer" class="s1" d="m38.4 44.4q-0.1 0-0.2 0.2 0 0 0.1 0.1l0.2 0.2q0.1 0.1 0.1 0.1 0.1 0 0.1 0 0.1-0.1 0.1-0.1 0-0.1 0-0.1l-0.3-0.3q0-0.1-0.1-0.1z"/>
	<path id="Layer" class="s1" d="m36.9 46q0 0-0.1 0 0 0.1 0 0.1 0 0.1 0 0.1l0.3 0.3q0 0.1 0.1 0.1 0.1 0 0.1-0.1 0-0.1 0-0.1l-0.3-0.3q0-0.1-0.1-0.1z"/>
	<path id="Layer" class="s1" d="m36.7 48.8q-0.1 0.1 0 0.2l0.5 0.4q0.1 0.1 0.2 0 0.1-0.1 0-0.2l-0.5-0.4q-0.1-0.1-0.2 0z"/>
	<path id="Layer" class="s1" d="m39.1 47.9q-0.1 0.1 0 0.3l0.3 0.3q0.1 0.2 0.2 0.1 0.1-0.1 0-0.2l-0.3-0.4q-0.1-0.1-0.2-0.1z"/>
	<path id="Layer" class="s1" d="m40.4 50.9q-0.1 0.1 0 0.2l0.5 0.5q0.1 0 0.2-0.1 0.1-0.1 0-0.2l-0.5-0.4q-0.2-0.1-0.2 0z"/>
	<path id="Layer" class="s1" d="m42.3 53.5q-0.2 0-0.1 0.1v0.1q0 0 0.1 0l0.2 0.2q0.1 0 0.2 0 0.1-0.1 0-0.2 0-0.1 0-0.1l-0.3-0.1q-0.1-0.1-0.1 0z"/>
	<path id="Layer" class="s1" d="m41.8 49q0 0.1 0 0.1-0.1 0.1 0 0.1l0.2 0.6q0.1 0 0.1 0 0.1 0.1 0.2 0 0-0.1 0-0.1-0.1-0.3-0.3-0.6 0 0-0.1-0.1 0 0-0.1 0z"/>
	<path id="Layer" fill-rule="evenodd" class="s0" d="m41.9 25.4c-0.4 0.6-1.1 0.7-1.7 0.7-0.7 0-1.4-0.1-2.1-0.2-0.7-0.1-1.3-0.4-1.8-0.9-0.5-0.6-0.8-1.3-0.9-2.1-0.3-1.6-0.2-3.4 0.2-5-0.3-0.3 0-0.6 0.3-0.5q0.2 0 0.3 0.2 2.1 1.7 3.8 3.9 0.8 0.9 1.5 2c0.4 0.5 0.8 1.3 0.4 1.9zm-0.6-1.2c-0.3-0.6-0.8-1.2-1.2-1.7q-0.7-0.9-1.4-1.7-1.2-1.3-2.6-2.5c-0.3 1.5-0.4 3.2-0.1 4.7 0.1 0.7 0.4 1.4 1 1.8 0.5 0.4 1.1 0.5 1.7 0.6 0.9 0.1 3.4 0.4 2.6-1.2z"/>
	<path id="Layer" fill-rule="evenodd" class="s0" d="m57.6 25.1q0.1 2.3-0.9 4.5c-0.2 0.3-0.4 0.6-0.8 0.6-0.4-0.1-0.8-0.4-1.1-0.6q-0.5-0.4-0.7-1c-0.2-0.8 0.1-1.6 0.6-2.2 0.6-0.7 1.4-1.1 2.1-1.5q0.2 0 0.3 0c0.1-0.2 0.5-0.1 0.5 0.2zm-0.6 0.4c-0.6 0.3-1.3 0.7-1.8 1.3-0.4 0.4-0.7 1.1-0.5 1.7 0.1 0.3 0.3 0.6 0.6 0.7q0.2 0.2 0.4 0.3c0.2 0.1 0.3 0.2 0.4 0 0.2-0.3 0.3-0.7 0.4-1q0.2-0.6 0.3-1.1 0.2-1 0.2-1.9z"/>
	<g id="Clip-Path" clip-path="url(#cp2)">
		<g id="Layer">
			<path id="Layer" fill-rule="evenodd" class="s0" d="m78 9.7c-0.4 1-1.1 1.7-2 2.3-1.7 1.1-3.8 1.4-5.5 2.6-0.3 0.2-0.5-0.2-0.4-0.4 1-2.1 0.6-4.6 1.3-6.8 0.5-1.7 1.8-3.4 3.7-3.5q0-1.3-0.4-2.6c-0.1-0.3 0.4-0.5 0.5-0.1q0.5 1.5 0.5 3.1c1 0.4 1.7 1.2 2.2 2.2q0.7 1.6 0.1 3.2zm-2.3-4.8q-0.1 1.8-0.6 3.4c-0.1 0.4-0.7 0.2-0.6-0.2q0.6-1.6 0.6-3.4 0-0.1-0.1-0.2c-1.9 0.2-2.9 2.1-3.3 3.8-0.3 1.8-0.2 3.6-0.8 5.3 0.7-0.3 1.4-0.6 2-0.9 1.7-0.6 3.7-1.3 4.4-3 0.8-1.8 0.1-3.8-1.6-4.8z"/>
		</g>
	</g>
	<g id="Clip-Path" clip-path="url(#cp3)">
		<g id="Layer">
			<path id="Layer" fill-rule="evenodd" class="s0" d="m135.6 43.8c0 0.1-0.1 0.2-0.3 0.3q-1.6 0.6-3.3 1.2c-4.4 1.6-8.9 3.5-12.7 6.4-3.7 2.7-6.3 6.3-8.2 10.3-3.7 8-4.6 16.9-8.8 24.7-2.2 4-5.5 7.3-9.3 9.9-4.1 2.7-8.8 4.7-13.6 6-9.4 2.5-19.9 2.1-28.6-2.8-7.1-3.9-12.8-10.5-14.8-18.4-0.7-0.8-1.2-1.8-1.4-3-0.5-2.8 0.9-5.5 2.8-7.4 1-1.1 2.1-2 3.2-2.8q1.7-1.3 3.5-2.4c4.6-3.1 9.5-5.7 14.6-7.8q7.7-3.1 15.9-4.7c5.5-1 11-1.5 16.5-1.4q4.3 0.1 8.6 0.7 2.2 0.3 4.3 0.7c0.9 0.2 1.8 0.4 2.5 0.8 0.4 0.3 1.6 0.7 1.6 1.3q2.9-2.3 5.9-4.5c3.4-2.6 6.7-5.3 10.2-7.5 3.3-2.1 6.9-3.8 10.8-4.4 0.2 0 0.4 0.1 0.4 0.3q0.1 2.2 0.2 4.5zm-100.5 33.8c0.3 4.7 5.2 6.1 9.1 6.3h0.1c2.9 0.2 5.8 0.2 8.8 0.1 5.8-0.2 11.6-0.9 17.3-2.1 5.7-1.2 11.3-2.9 16.7-5.1q4-1.7 7.9-3.8c2.4-1.3 4.8-2.7 6.9-4.4 2.1-1.7 4-3.7 5.2-6.1 0.8-1.7 1.3-3.7 0.9-5.6-0.2-0.8-0.7-1.8-1.5-2.1q-1.4-0.7-3-1c-5.3-1-10.7-1.4-16.1-1.3q-8.1 0.3-16 2.1-7.9 1.8-15.3 5.1-7.3 3.4-13.9 8.1c-2.3 1.6-4.7 3.3-6.1 5.8-0.7 1.2-1.1 2.6-1 4z"/>
		</g>
	</g>
	<path id="Layer" fill-rule="evenodd" class="s0" d="m95.4 18.1c-0.3 0.6-0.7 1.2-1.1 1.8q-0.6 0.9-1.3 1.8-1.3 1.7-2.8 3.3c-0.9 1.1-1.8 2.1-2.8 3.1q-1.4 1.3-3.2 1.9c-1.1 0.4-2.3 0.6-3.5 0.7-1.3 0-2.6 0-3.8-0.3-1.3-0.2-2.6-0.7-3.5-1.6-0.9-0.8-1.4-1.9-1.5-3.1-0.2-1.1 0-2.3 0.2-3.4 0-0.2 0.2-0.2 0.3 0 0.2 1 0.6 2 1.1 2.9 0.6 0.9 1.5 1.6 2.6 1.8 0.6 0.1 1.2 0 1.7 0q0.8 0 1.5-0.1c0.5-0.1 1-0.2 1.4-0.5 0.4-0.2 0.8-0.6 1.1-1 0.3-0.4 0.5-0.9 0.8-1.4q0.4-0.8 0.8-1.6l1.6-3.2q0.8-1.6 1.6-3.2c0.5-0.8 1-1.7 1.9-2.2q0.5-0.2 1.1-0.2 0 0 0.1 0c0.5-0.1 1-0.4 1.4-0.9 0.8-0.8 1-2.1 1-3.2 0-0.4-0.1-1.1 0.5-1.1 0.2 0 0.5 0.1 0.7 0.2q0.4 0.2 0.8 0.3c0 0.1 0.1 0.1 0.2 0.1 0 0.1 0 0.1 0 0.1q0 0.2 0 0.5l-0.1 1.7v0.7c-0.1 0.7-0.3 1.6 0.2 2.3q0 0 0 0.1 0 0 0 0 0.4 0.2 0.6 0.5c0.8 0.9 0.8 2.2 0.4 3.2zm-4.9-4.5c1.2 0.1 2.3 0.6 3.5 0.7-0.3-0.7-0.2-1.4-0.2-2.1l0.2-2.9-1-0.5c-0.2 0-0.4-0.2-0.5 0-0.1 0.1-0.1 0.3-0.1 0.4 0 0.8 0 1.5-0.2 2.2-0.3 0.9-0.9 1.7-1.7 2.2z"/>
	<path id="Layer" class="s1" d="m89.3 14.7q-1.9 1.3-2.8 3.5c-0.2 0.3 0.4 0.6 0.6 0.2q0.8-2 2.6-3.2c0.3-0.2-0.1-0.7-0.4-0.5z"/>
	<path id="Layer" class="s1" d="m86.5 19.5q-0.1-0.1-0.2-0.2-0.3-0.1-0.4 0.1l-0.1 0.3q-0.1 0.1-0.1 0.3 0 0 0.1 0.1 0 0 0.1 0v0.1q0.3 0.1 0.4-0.2l0.1-0.2q0.1-0.1 0.1-0.2 0 0 0-0.1z"/>
	<path id="Layer" class="s0" d="m84.8 53.5q-1.8 2.1-2.5 4.9-0.4 1.5-0.4 3l-5-1.4c1.3-2.8 1.3-6.1 0.3-9.1q-0.4-1.1-1-2.1c0.7-0.1 1.4-0.4 2.1-0.8q0.1 0.1 0.2 0.3 0.2 0.4 0.6 0.7 1 1.9 1.2 4.2c0 0.1 0.2 0.1 0.3 0q0.6-1.8 1.4-3.5 0-0.1 0-0.1 0.8-0.1 1.5-0.5-0.1 1.7-0.2 3.3c0 0.1 0.1 0.2 0.2 0.1q1.5-1.5 3.2-2.8 0.6-0.1 1.1-0.5 0.5 0.7 1.2 1.1-2.4 1.1-4.2 3.2zm9.5-8.1c-0.2 0.4-0.6 0.8-1.1 0.9q-0.1 0-0.1 0.1 0 0.1 0 0.2c0.8 1 0.4 2.5-0.5 3.3-0.9 0.7-2.2 0.7-3.2 0.2q0 0-0.1 0-0.2-0.1-0.4-0.3c-0.6-0.4-1.1-1-1.4-1.7-0.1-0.1-0.3 0-0.2 0.1q0.2 0.4 0.4 0.8-0.4 0.3-0.9 0.4-0.1-0.1-0.1 0c-0.9 0.1-1.7-0.2-2.3-0.9q0.7-0.7 1.1-1.5c0-0.2-0.2-0.3-0.3-0.1q-0.3 0.8-1 1.4 0 0.1-0.1 0.1-0.7 0.6-1.6 0.8-0.9 0.3-1.8 0.2-0.4-0.1-0.9-0.3-0.2-0.1-0.4-0.2c-0.1-0.1-0.2-0.1-0.3-0.2q-0.1-0.1-0.2-0.3c-0.5-0.5-0.7-1.4-0.4-2 0.1-0.2-0.1-0.3-0.2-0.1-0.2 0.4-0.2 1-0.1 1.5-0.9 0.5-2.1 1-3.2 0.7q-0.4-0.1-0.8-0.3-0.7-0.5-0.9-1.3c-0.2-0.5 0.1-1.2 0.5-1.5 0.1-0.2 0-0.3-0.2-0.2-0.4 0.3-0.7 0.9-0.6 1.5-0.8 0.2-1.7 0.3-2.5 0.1-0.8-0.3-1.4-0.8-1.6-1.6-0.3-1.5 0.6-3 1.8-3.8 0.6-0.5 1.4-0.8 2.2-0.8 0.1 0 0.2-0.2 0.1-0.3 0.2-0.5 0.7-1 1.3-1.2 0.6-0.2 1.3-0.1 1.9 0.2q0.6 0.5 1.1 1.1c0.1 0.2 0.3 0 0.2-0.1q-0.4-0.5-0.9-1c1-1.5 2.9-2.4 4.7-2.3q0.6 0 1.3 0.2c-0.1 0.1 0 0.2 0.1 0.1q1.3-0.8 2.8-0.6c0.9 0.2 1.7 0.7 2.2 1.4q0.5 0.6 0.7 1.2-0.5 0.2-0.9 0.5c-0.1 0.1 0.1 0.3 0.2 0.2q0.2-0.2 0.5-0.3c0.6-0.3 1.4-0.4 2.1-0.1q0.2 0.1 0.5 0.3c0.6 0.5 0.8 1.3 0.7 2.1-0.2 0-0.2 0.3 0 0.2 1.7-0.5 3.5 1.5 2.8 3.2z"/>
	<path id="Layer" class="s1" d="m91 44.8q-0.2 0.2-0.5 0.3-0.3 0.1-0.6 0.1-0.3 0-0.6-0.1-0.3-0.2-0.5-0.4 0.1-0.1-0.1-0.1c-0.1-0.1-0.2 0-0.1 0.1-0.5 0.8-1.3 1.3-2.2 1.4q-0.8 0.1-1.5-0.2c-0.4-0.2-0.9-0.5-1-1-0.1-0.1-0.3-0.1-0.3 0.1 0.2 0.8 1.2 1.2 1.9 1.4q1 0.1 1.8-0.3 0.9-0.4 1.4-1.2 0.4 0.5 1.1 0.6c0.5 0 1-0.2 1.4-0.5 0.1-0.1-0.1-0.3-0.2-0.2z"/>
	<path id="Layer" class="s1" d="m78.6 43.5c-0.4 0.2-0.8 0.3-1.3 0.2-0.3-0.1-0.6-0.4-0.5-0.8 0-0.1-0.2-0.2-0.3 0q-0.1 0.3 0.1 0.6c-0.5 0.4-1.3 0.4-1.8 0-0.6-0.4-0.8-1.1-0.6-1.8 0-0.1-0.2-0.2-0.3 0-0.1 0.6 0 1.2 0.4 1.7 0.3 0.5 1 0.7 1.6 0.7q0.5-0.1 0.9-0.4 0.2 0.2 0.4 0.2c0.5 0.2 1 0 1.5-0.2 0.2-0.1 0-0.3-0.1-0.2z"/>
	<path id="Layer" class="s1" d="m84.5 41.7q-0.4 0.3-0.8 0.3-0.4 0.1-0.8-0.1c-0.5-0.2-0.9-0.7-0.9-1.3-0.1-0.1-0.3-0.1-0.3 0.1q0.1 0.5 0.4 0.8 0.2 0.4 0.7 0.6c0.6 0.3 1.3 0.2 1.8-0.2 0.2-0.1 0-0.3-0.1-0.2z"/>
	<path id="Layer" class="s1" d="m81.4 44.9c-0.3 0.1-0.7 0.2-1.1 0.1-0.3-0.1-0.5-0.4-0.5-0.7 0-0.2-0.3-0.2-0.3 0 0 0.4 0.3 0.7 0.6 0.9 0.5 0.1 0.9 0.1 1.3-0.1q0.2 0 0.2-0.1c-0.1-0.1-0.1-0.1-0.2-0.1z"/>
	<path id="Layer" class="s1" d="m78.3 38.8c-0.2 0-0.1 0.3 0 0.2 0.2 0 0.1-0.3 0-0.2z"/>
	<path id="Layer" class="s1" d="m81.1 37.4c-0.2 0.1-0.1 0.3 0 0.3 0.2 0 0.1-0.3 0-0.3z"/>
	<path id="Layer" class="s1" d="m80 38.3q0 0 0 0l-0.1-0.1q0 0 0 0h-0.1q0 0 0 0.1 0 0 0 0-0.1 0-0.1 0 0 0.1 0 0.1 0 0 0 0 0.1 0.1 0.1 0.1 0 0 0.1 0 0.1 0 0.1 0 0-0.1 0-0.1 0 0 0-0.1z"/>
	<path id="Layer" class="s1" d="m79.2 38.9q0-0.1 0-0.1h-0.1q0 0 0 0h-0.1q0 0 0 0 0 0-0.1 0.1 0 0 0 0 0 0.1 0 0.1 0 0 0.1 0 0 0.1 0.1 0 0 0 0.1 0 0 0 0 0 0-0.1 0-0.1z"/>
	<path id="Layer" class="s1" d="m79.9 37.6q0 0-0.1 0 0 0-0.1 0 0 0 0 0-0.1 0-0.1 0 0 0.1 0 0.1 0 0 0 0.1 0 0 0.1 0 0 0 0 0h0.1q0 0 0 0 0.1 0 0.1 0 0-0.1 0-0.1 0 0 0-0.1z"/>
	<path id="Layer" class="s1" d="m73.7 40.1q0 0 0-0.1-0.1 0-0.1 0-0.1 0-0.1 0.1 0 0.1 0 0.1 0 0.1 0 0.1h0.1q0 0 0 0h0.1q0 0 0-0.1 0.1-0.1 0-0.1z"/>
	<path id="Layer" class="s1" d="m74.3 39.6q0 0 0 0v-0.1q-0.1 0-0.1 0h-0.1q0 0.1 0 0.1 0 0-0.1 0 0 0.1 0 0.1h0.1q0 0.1 0 0.1 0.1 0 0.1 0 0.1 0 0.1 0 0 0 0-0.1 0 0 0 0 0 0 0-0.1z"/>
	<path id="Layer" class="s1" d="m74.9 39.5q0 0-0.1 0 0 0-0.1 0 0 0 0 0-0.1 0-0.1 0.1 0 0 0 0 0 0 0 0 0 0.1 0.1 0.1 0 0 0.1 0 0 0 0 0 0.1 0 0.1 0 0-0.1 0-0.1z"/>
	<path id="Layer" class="s1" d="m75.2 39.6c-0.1 0.1-0.1 0.3 0.1 0.3 0.1 0 0.1-0.3-0.1-0.3z"/>
	<path id="Layer" class="s1" d="m74.5 40.1c-0.1 0.1-0.1 0.3 0.1 0.3 0.1-0.1 0.1-0.3-0.1-0.3z"/>
	<path id="Layer" class="s1" d="m73.3 41.1c-0.2 0-0.1 0.3 0.1 0.3 0.1-0.1 0.1-0.3-0.1-0.3z"/>
	<path id="Layer" class="s1" d="m78.7 38.3q0 0-0.1 0v-0.1q-0.1 0-0.1 0.1 0 0 0 0 0 0 0 0.1 0 0 0 0 0 0 0 0.1 0 0 0.1 0 0 0 0.1 0 0 0 0 0 0-0.1 0-0.1 0 0 0 0 0-0.1 0-0.1z"/>
	<path id="Layer" class="s1" d="m77.4 39.3q0 0 0 0 0-0.1-0.1-0.1 0 0 0 0v0.1q-0.1 0-0.1 0 0 0.1 0 0.1 0 0 0 0.1 0 0 0.1 0 0 0 0 0 0 0 0.1 0 0 0 0 0v-0.1q0.1 0 0 0v-0.1q0 0 0 0z"/>
	<path id="Layer" class="s1" d="m82.7 38.2q0-0.1 0-0.1-0.1 0-0.1 0-0.1 0-0.1 0.1 0 0 0 0.1 0 0 0 0h0.1q0 0.1 0 0.1 0.1-0.1 0.1-0.1 0-0.1 0-0.1 0 0 0 0z"/>
	<path id="Layer" class="s1" d="m83.7 37.1c-0.2 0.1-0.2 0.3 0 0.3 0.2-0.1 0.1-0.3 0-0.3z"/>
	<path id="Layer" class="s1" d="m84.7 37q0 0-0.1 0-0.1 0-0.1 0 0 0 0 0 0 0.1 0 0.1 0 0 0 0 0 0.1 0 0.1 0 0 0.1 0 0.1 0 0.1 0 0.1 0 0.1-0.1 0 0 0 0 0-0.1-0.1-0.1z"/>
	<path id="Layer" class="s1" d="m85.5 37.2q0-0.1-0.1-0.1 0 0-0.1 0 0 0 0 0 0 0-0.1 0 0 0.1 0 0.1 0 0 0 0 0 0.1 0 0.1 0 0 0.1 0 0 0 0.1 0 0 0 0.1 0 0 0 0-0.1 0 0 0 0 0 0 0 0z"/>
	<path id="Layer" class="s1" d="m85.2 37.5q-0.1 0-0.1 0 0-0.1 0-0.1-0.1 0-0.1 0.1-0.1 0-0.1 0 0 0.1 0 0.1 0 0.1 0.1 0.1 0 0 0.1 0 0 0 0 0 0 0 0-0.1h0.1q0 0 0-0.1 0 0 0 0z"/>
	<path id="Layer" class="s1" d="m84 37.8c-0.2 0.1-0.2 0.3 0 0.3 0.2 0 0.1-0.3 0-0.3z"/>
	<path id="Layer" class="s1" d="m83.6 38.5q0 0-0.1-0.1-0.1 0-0.1 0.1 0 0-0.1 0v0.1q0 0 0 0 0 0 0 0.1 0.1 0 0.1 0 0 0 0 0 0.1 0 0.1 0 0.1 0 0.1-0.1 0 0 0 0 0 0 0 0 0-0.1 0-0.1z"/>
	<path id="Layer" class="s1" d="m83.3 39c-0.2 0-0.1 0.3 0 0.2 0.2 0 0.1-0.2 0-0.2z"/>
	<path id="Layer" class="s1" d="m82.1 39.1q0 0 0 0h-0.1q0-0.1 0 0h-0.1q0 0 0 0 0 0 0 0-0.1 0.1-0.1 0.1 0 0 0 0 0.1 0.1 0.1 0.1 0 0 0.1 0 0 0 0.1 0 0-0.1 0-0.1z"/>
	<path id="Layer" class="s1" d="m83.4 37.7q-0.1-0.1-0.1-0.1 0 0-0.1 0-0.1 0-0.1 0.1 0 0.1 0 0.1 0 0 0.1 0 0 0.1 0.1 0.1v-0.1q0 0 0 0 0 0 0.1 0 0 0 0-0.1z"/>
	<path id="Layer" class="s1" d="m85 38.1q-0.1 0-0.1 0-0.1 0-0.1 0v0.1q-0.1 0-0.1 0 0 0.1 0 0.1 0 0 0.1 0v0.1q0 0 0 0h0.1q0 0 0-0.1h0.1q0 0 0 0 0-0.1 0-0.1 0 0 0 0 0-0.1 0-0.1z"/>
	<path id="Layer" class="s1" d="m86.3 37.6q0 0 0 0h-0.1q0-0.1 0 0h-0.1q0 0 0 0-0.1 0-0.1 0 0 0.1 0 0.1 0 0.1 0.1 0.1 0 0 0.1 0 0 0 0.1 0 0 0 0-0.1 0 0 0 0 0 0 0 0z"/>
	<path id="Layer" class="s1" d="m86.8 37.4h-0.1q0 0 0 0h-0.1q0 0 0 0 0 0-0.1 0 0 0 0 0.1 0 0 0 0 0 0 0 0 0 0.1 0 0.1h0.1q0 0 0 0l0.1 0.1q0 0 0-0.1 0.1 0 0.1 0 0 0 0-0.1 0 0 0-0.1z"/>
	<path id="Layer" class="s1" d="m70.2 42.2c-0.1 0-0.1 0.3 0.1 0.2 0.1 0 0.1-0.2-0.1-0.2z"/>
	<path id="Layer" class="s1" d="m71.4 41.5q0 0 0 0h-0.1q0 0 0 0-0.1 0-0.1 0 0 0 0 0.1 0 0 0 0 0 0 0 0 0 0.1 0 0.1 0.1 0 0.1 0 0.1 0 0.1 0 0 0 0 0 0-0.1 0-0.1 0 0 0 0z"/>
	<path id="Layer" class="s1" d="m72.1 41.4q-0.1 0-0.2 0 0 0 0 0 0 0 0 0.1-0.1 0-0.1 0h0.1q0 0.1 0 0.1 0 0 0 0 0.1 0 0.1 0 0.1 0 0.1 0 0-0.1 0-0.1 0-0.1 0-0.1z"/>
	<path id="Layer" class="s1" d="m71.9 41.9q0 0 0 0v-0.1q-0.1 0-0.1 0h-0.1q0 0 0 0.1 0 0 0 0 0 0 0 0-0.1 0.1 0 0.1 0 0 0 0 0 0.1 0 0.1 0.1 0 0.1 0 0.1 0 0.1 0 0-0.1 0-0.1 0.1 0 0-0.1z"/>
	<path id="Layer" class="s1" d="m70.8 42.6q0 0 0 0l-0.1-0.1q0 0 0 0h-0.1q0 0.1 0 0.1-0.1 0.1 0 0.1 0 0 0 0 0 0.1 0 0.1 0.1 0 0.1 0 0.1 0 0.1-0.1 0 0 0 0 0-0.1 0-0.1z"/>
	<path id="Layer" class="s1" d="m70.2 43.4q-0.1 0-0.1 0 0 0-0.1 0 0 0-0.1 0v0.1q0 0 0 0 0 0.1 0.1 0.1 0 0 0 0 0 0.1 0.1 0 0 0 0.1 0 0 0 0 0 0-0.1 0-0.1 0 0 0-0.1z"/>
	<path id="Layer" class="s1" d="m71.8 43.6q-0.1 0-0.1 0 0-0.1-0.1-0.1 0 0-0.1 0.1 0 0.1 0 0.1 0 0.1 0 0.1h0.1q0 0 0.1 0 0 0 0 0l0.1-0.1q0 0 0 0z"/>
	<path id="Layer" fill-rule="evenodd" class="s0" d="m61.3 8.1c0 0.8-0.3 1.6-0.9 2.1-0.6 0.4-1.3 0.7-2 0.6-0.7-0.1-1.2-0.6-1.7-1.2-0.2-0.2-0.5-0.5-0.9-0.6-0.4 0-0.7 0.4-0.8 0.8-0.1 0.6 0.2 1.1 0.3 1.7 0.1 0.4 0.2 0.9 0.1 1.4 0 0.9-0.3 1.7-1.1 2.2-0.6 0.4-1.4 0.5-2 0-0.6-0.5-0.8-1.3-0.8-2 0-1 0.3-1.9 0.4-2.8 0.1-0.5 0.3-1.1 0-1.5-0.2-0.5-0.8-0.3-1.1-0.1-0.4 0.3-0.6 0.8-0.9 1.1q-0.4 0.5-1 0.7c-0.7 0.2-1.5 0.1-2.1-0.3-1.6-0.9-1.6-3.1-0.8-4.5 1-1.6 2.9-2.5 4.7-2.9q3-0.8 6 0.3c0.5 0.2 0.9 0.6 1.4 0.8 1.6 0.9 3.1 2.3 3.2 4.2zm-0.7-1c-0.4-1.1-1.3-1.9-2.3-2.5-1-0.6-2-1.2-3.1-1.4q-2.9-0.7-5.7 0.4c-1.6 0.6-3.2 1.8-3.5 3.6-0.1 0.8 0.1 1.7 0.7 2.3 0.5 0.5 1.3 0.7 2 0.5 0.9-0.2 1.1-1.1 1.8-1.6 0.5-0.4 1.4-0.6 1.8 0 0.2 0.4 0.2 0.8 0.2 1.1q-0.1 0.7-0.2 1.4c-0.2 0.9-0.3 1.7-0.3 2.6 0.1 0.7 0.5 1.5 1.3 1.5 0.8-0.1 1.4-0.8 1.6-1.5 0.2-1-0.2-2-0.3-2.9-0.1-0.8 0-1.7 0.8-2 0.6-0.2 1.2 0.2 1.6 0.6 0.5 0.6 0.9 1.2 1.7 1.2 0.7 0 1.3-0.4 1.7-1 0.5-0.7 0.4-1.6 0.2-2.3z"/>
	<path id="Layer" fill-rule="evenodd" class="s0" d="m54.7 49.6c-0.9-0.3-1.6-0.9-1.8-1.8-0.1-0.8 0.3-1.6 1.2-1.8 0.9-0.3 1.8 0.2 2.4 0.9 0.7 0.7 1.1 1.7 1.9 2.3q0.1 0 0.1 0.1c0.2 0.2 0.1 0.6-0.2 0.5-1.2-0.1-2.4 0.1-3.6-0.2zm0.8-0.4c0.7 0 1.4 0 2.1 0-0.5-0.5-0.9-1.2-1.4-1.7-0.5-0.6-1.2-1.1-2-1-0.7 0.2-0.8 1-0.6 1.6 0.3 0.7 1.2 1 1.9 1.1z"/>
	<path id="Layer" class="s0" d="m85.4 66.1q-7.4 0.2-14.6 2.3-7.2 2.1-13.6 5.9-3.6 2.2-6.8 4.9c-0.3 0.2 0.1 0.6 0.4 0.4 3.8-3.1 7.9-5.7 12.4-7.8q6.7-3 14-4.3 4.1-0.7 8.2-0.9c0.4 0 0.4-0.6 0-0.5z"/>
	<g id="Layer">
		<g id="Layer">
			<g id="Layer">
				<path id="Layer" class="s0" d="m13.2 120.7v1.8h-7.2v5.6h5.8v1.7h-5.8v7.5h-2.2v-16.6z"/>
			</g>
		</g>
	</g>
	<g id="Layer">
		<g id="Layer">
			<g id="Layer">
				<path id="Layer" fill-rule="evenodd" class="s0" d="m23.3 137.4q-2.3 0-4.2-1-1.9-1.1-3-3.1-1.1-1.9-1.1-4.3 0-2.4 1.1-4.4 1.1-1.9 3-3 1.9-1.1 4.2-1.1 2.3 0 4.2 1.1 1.9 1.1 3 3 1.1 1.9 1.1 4.4 0 2.4-1.1 4.3-1.1 2-3 3.1-1.9 1-4.2 1zm0-1.8q1.7 0 3.1-0.8 1.4-0.9 2.2-2.4 0.8-1.5 0.8-3.4 0-2-0.8-3.5-0.8-1.5-2.2-2.3-1.4-0.8-3.1-0.8-1.8 0-3.2 0.8-1.3 0.8-2.1 2.3-0.8 1.5-0.8 3.5 0 1.9 0.8 3.4 0.8 1.5 2.2 2.4 1.3 0.8 3.1 0.8z"/>
			</g>
		</g>
	</g>
	<g id="Layer">
		<g id="Layer">
			<g id="Layer">
				<path id="Layer" fill-rule="evenodd" class="s0" d="m42 137.4q-2.3 0-4.3-1-1.8-1.1-3-3.1-1.1-1.9-1.1-4.3 0-2.4 1.1-4.4 1.2-1.9 3-3 2-1.1 4.3-1.1 2.3 0 4.2 1.1 1.9 1.1 3 3 1.1 1.9 1.1 4.4 0 2.4-1.1 4.3-1.1 2-3 3.1-1.9 1-4.2 1zm0-1.8q1.7 0 3.1-0.8 1.4-0.9 2.2-2.4 0.8-1.5 0.8-3.4 0-2-0.8-3.5-0.8-1.5-2.2-2.3-1.4-0.8-3.1-0.8-1.8 0-3.2 0.8-1.4 0.8-2.1 2.3-0.8 1.5-0.8 3.5 0 1.9 0.8 3.4 0.7 1.5 2.1 2.4 1.4 0.8 3.2 0.8z"/>
			</g>
		</g>
	</g>
	<g id="Layer">
		<g id="Layer">
			<g id="Layer">
				<path id="Layer" fill-rule="evenodd" class="s0" d="m58.3 120.7q2.7 0 4.7 1 2 1 3 2.9 1.1 1.9 1.1 4.4 0 2.6-1.1 4.4-1 1.9-3 2.9-2 1-4.7 1h-5.2v-16.6zm0 14.8q3.2 0 4.9-1.7 1.7-1.7 1.7-4.8 0-3.1-1.7-4.8-1.7-1.7-4.9-1.7h-3v13z"/>
			</g>
		</g>
	</g>
	<g id="Layer">
		<g id="Layer">
			<g id="Layer">
				<path id="Layer" class="s2" d="m79.3 120.7v1.8h-7.2v5.6h5.8v1.7h-5.8v7.5h-2.2v-16.6z"/>
			</g>
		</g>
	</g>
	<g id="Layer">
		<g id="Layer">
			<g id="Layer">
				<path id="Layer" fill-rule="evenodd" class="s2" d="m90.6 137.3l-3.9-6.8h-2.6v6.8h-2.2v-16.6h5.3q1.9 0 3.2 0.6 1.3 0.7 2 1.8 0.6 1.1 0.6 2.5 0 1.7-1 3-1 1.3-2.9 1.7l4.1 7zm-6.5-8.5h3.1q1.8 0 2.7-0.9 0.9-0.9 0.9-2.3 0-1.5-0.9-2.3-0.9-0.8-2.7-0.8h-3.1z"/>
			</g>
		</g>
	</g>
	<g id="Layer">
		<g id="Layer">
			<g id="Layer">
				<path id="Layer" class="s2" d="m98.5 120.7v16.6h-2.2v-16.6z"/>
			</g>
		</g>
	</g>
	<g id="Layer">
		<g id="Layer">
			<g id="Layer">
				<path id="Layer" class="s2" d="m104.4 122.5v5.5h6v1.8h-6v5.7h6.7v1.8h-8.9v-16.6h8.9v1.8z"/>
			</g>
		</g>
	</g>
	<g id="Layer">
		<g id="Layer">
			<g id="Layer">
				<path id="Layer" class="s2" d="m127.4 137.3h-2.2l-8.6-13.2v13.2h-2.2v-16.6h2.2l8.6 13.1v-13.1h2.2z"/>
			</g>
		</g>
	</g>
	<g id="Layer">
		<g id="Layer">
			<g id="Layer">
				<path id="Layer" fill-rule="evenodd" class="s2" d="m136.2 120.7q2.8 0 4.8 1 1.9 1 3 2.9 1 1.9 1 4.4 0 2.6-1 4.4-1.1 1.9-3 2.9-2 1-4.8 1h-5.1v-16.6zm0 14.8q3.2 0 4.9-1.7 1.7-1.7 1.7-4.8 0-3.1-1.7-4.8-1.7-1.7-4.9-1.7h-3v13z"/>
			</g>
		</g>
	</g>
</svg>